<?xml version="1.0" standalone="no"?>
<!DOCTYPE svg PUBLIC "-//W3C//DTD SVG 20010904//EN"
 "http://www.w3.org/TR/2001/REC-SVG-20010904/DTD/svg10.dtd">
<svg version="1.0" xmlns="http://www.w3.org/2000/svg"
 width="937.000000pt" height="1280.000000pt" viewBox="0 0 937.000000 1280.000000"
 preserveAspectRatio="xMidYMid meet">
<metadata>
Created by potrace 1.15, written by Peter Selinger 2001-2017
</metadata>
<g transform="translate(0.000000,1280.000000) scale(0.100000,-0.100000)"
fill="#000000" stroke="none">
<path d="M5507 11661 c-125 -37 -231 -72 -236 -77 -5 -5 -16 -31 -25 -59 l-16
-50 -194 -98 -193 -97 -129 -170 c-71 -94 -134 -170 -140 -170 -7 0 -128 25
-270 54 -143 30 -262 52 -266 48 -3 -4 -30 -60 -58 -124 -29 -65 -56 -118 -61
-118 -5 0 -70 24 -143 54 l-134 54 -246 -202 -246 -201 0 -135 c0 -110 -5
-152 -25 -230 -14 -52 -25 -103 -25 -113 0 -10 23 -52 51 -93 28 -42 49 -77
47 -80 -3 -2 -63 -9 -134 -16 l-129 -12 -140 -136 c-88 -85 -202 -182 -306
-259 l-166 -123 29 -115 c17 -70 46 -150 73 -204 25 -49 45 -96 45 -106 0 -24
-56 32 -131 129 -32 42 -65 80 -72 84 -9 6 -9 4 -1 -7 6 -8 57 -76 113 -151
56 -76 104 -138 107 -138 3 0 2 5 -1 10 -4 6 -7 31 -7 56 0 24 -12 79 -28 122
-15 42 -36 111 -45 154 -26 110 -22 117 149 245 78 59 197 161 266 228 69 67
140 129 157 139 18 9 70 21 115 27 46 6 91 15 101 21 24 12 21 50 -8 108 -30
59 -31 75 -5 182 10 46 23 145 28 220 7 114 12 141 28 159 39 44 410 342 442
356 37 15 43 14 154 -28 84 -31 139 -37 157 -15 6 7 29 50 51 94 21 44 48 86
59 91 31 17 64 14 265 -29 104 -22 208 -40 231 -40 50 0 70 19 203 195 100
133 103 135 341 255 111 56 126 67 150 108 44 78 58 86 248 142 97 29 196 55
220 59 l43 6 -20 33 c-11 17 -25 32 -32 31 -7 0 -115 -31 -241 -68z"/>
<path d="M5810 11646 c0 -4 11 -28 25 -55 13 -27 29 -69 36 -95 23 -93 -32
-170 -166 -232 -69 -31 -221 -74 -267 -74 -44 0 -51 -14 -78 -169 -15 -83 -29
-153 -31 -154 -2 -2 -74 -67 -159 -144 l-155 -141 -207 -344 c-113 -189 -208
-347 -210 -353 -1 -5 16 -29 39 -53 l42 -43 -6 35 c-5 33 10 62 188 359 106
177 212 343 236 368 23 25 90 88 148 140 58 52 114 108 125 124 10 17 28 80
40 140 24 119 40 159 67 170 10 4 59 17 108 30 125 32 198 61 248 99 100 77
114 157 49 292 -33 67 -72 122 -72 100z"/>
<path d="M4783 9670 c63 -82 118 -171 149 -236 16 -35 39 -69 50 -75 17 -9 17
-6 -6 39 -35 69 -138 219 -186 272 l-42 45 35 -45z"/>
<path d="M1907 9361 c-28 -6 -28 -7 192 -313 174 -242 216 -308 203 -312 -9
-2 -123 -28 -254 -57 l-236 -52 -94 -79 c-51 -44 -97 -84 -101 -88 -11 -10 68
-198 96 -227 34 -38 36 -26 4 40 -16 34 -30 80 -31 101 -1 36 5 44 69 103 39
36 87 73 108 84 20 11 125 39 233 64 200 45 234 60 234 99 0 12 -77 128 -170
260 -164 230 -189 273 -175 295 15 25 56 8 139 -59 48 -38 89 -70 93 -70 3 0
-54 50 -128 110 -73 61 -138 109 -144 109 -5 -1 -23 -4 -38 -8z"/>
<path d="M5010 9336 c0 -15 377 -182 387 -172 16 15 -35 43 -188 104 -169 68
-199 78 -199 68z"/>
<path d="M5410 9143 c0 -4 46 -147 103 -317 90 -273 115 -331 133 -314 5 6
-178 553 -200 595 -16 31 -36 51 -36 36z"/>
<path d="M5680 8485 c13 -13 33 -28 44 -31 12 -4 35 -16 51 -27 l30 -21 -20
24 c-28 32 -95 80 -113 80 -12 0 -10 -6 8 -25z"/>
<path d="M5814 8402 c19 -31 145 -107 218 -133 89 -31 117 -34 395 -53 133 -9
198 -17 210 -27 13 -10 11 -6 -4 17 -12 17 -28 36 -35 41 -7 6 -110 16 -228
22 -301 17 -434 46 -528 118 -20 14 -32 21 -28 15z"/>
<path d="M1978 7859 l-26 -91 43 -128 43 -127 -65 -38 c-36 -21 -67 -44 -70
-52 -3 -7 7 -73 22 -145 26 -124 30 -134 73 -187 84 -104 94 -167 35 -232 -42
-47 -87 -73 -114 -66 -12 3 -19 0 -19 -10 0 -8 18 -110 40 -226 34 -180 44
-215 63 -229 30 -24 38 -22 27 5 -14 33 -60 288 -60 334 0 46 10 60 71 101 46
31 79 81 79 121 0 31 -25 87 -64 141 -18 25 -39 56 -45 68 -19 35 -52 215 -46
247 3 18 25 47 55 75 58 54 60 63 25 173 -28 88 -31 145 -10 231 12 51 12 64
0 93 -8 18 -18 33 -23 33 -4 0 -20 -41 -34 -91z"/>
<path d="M7878 7840 l-268 -68 -292 39 c-161 22 -306 38 -322 37 l-29 -3 40
-22 c32 -18 94 -30 308 -58 148 -19 297 -35 332 -35 44 0 132 17 283 55 121
30 231 55 245 55 18 0 25 5 25 19 0 34 -12 51 -34 50 -11 0 -141 -31 -288 -69z"/>
<path d="M8210 7829 c0 -8 9 -51 19 -96 l19 -82 -80 -52 c-43 -29 -81 -56 -84
-60 -2 -4 14 -45 36 -90 23 -45 38 -85 33 -89 -4 -4 -73 -54 -152 -110 -79
-57 -145 -109 -147 -115 -3 -6 14 -108 36 -225 37 -196 48 -235 126 -445 78
-211 90 -235 135 -285 50 -55 50 -55 20 -10 -16 25 -66 142 -109 260 -71 190
-84 238 -117 412 -21 114 -34 207 -30 220 11 35 32 55 152 145 127 93 136 109
109 182 -29 82 -21 111 45 157 69 48 76 87 39 223 -10 39 -50 87 -50 60z"/>
<path d="M2050 6286 c0 -9 142 -97 148 -92 7 7 12 3 -70 54 -65 40 -78 47 -78
38z"/>
<path d="M2030 6039 c-85 -78 -158 -147 -161 -153 -4 -6 -24 -74 -44 -151 -21
-77 -43 -145 -49 -151 -6 -6 -83 -29 -171 -50 l-160 -39 -148 -118 -148 -117
70 -138 c38 -75 69 -137 68 -137 -1 -1 -49 3 -106 9 -124 12 -253 -2 -329 -34
-76 -33 -78 -40 -24 -84 l47 -38 3 26 c6 51 99 77 271 77 63 0 122 4 133 10
27 15 22 56 -17 138 -46 96 -45 117 8 168 63 61 198 164 233 179 16 7 77 24
135 39 127 31 174 51 193 81 9 12 29 69 45 126 46 165 37 152 218 318 62 56
115 110 118 121 6 18 -10 59 -23 59 -4 0 -77 -64 -162 -141z"/>
<path d="M8150 5816 c-113 -69 -205 -128 -205 -133 0 -5 29 -40 64 -79 35 -38
54 -56 42 -40 -11 16 -21 41 -21 57 0 33 15 46 191 152 146 89 164 106 155
142 -4 14 -10 25 -14 25 -4 -1 -99 -56 -212 -124z"/>
<path d="M8120 5476 c0 -2 8 -10 18 -17 15 -13 16 -12 3 4 -13 16 -21 21 -21
13z"/>
<path d="M8372 5168 c36 -95 218 -621 216 -624 -2 -1 -36 -11 -76 -22 -53 -15
-74 -18 -77 -9 -2 7 -5 48 -7 92 -3 71 -11 99 -68 240 -41 104 -73 169 -90
185 -15 14 -33 42 -40 63 -8 20 -17 37 -21 37 -4 0 -58 -46 -119 -101 -61 -56
-113 -99 -116 -96 -3 3 -13 19 -22 35 -44 75 -59 93 -104 112 -26 11 -62 20
-82 20 -56 0 -66 -18 -66 -126 l0 -94 -165 0 c-108 0 -273 10 -481 31 -174 16
-317 29 -319 27 -2 -2 -8 -82 -14 -178 -6 -96 -12 -188 -14 -205 -2 -27 1 -30
27 -30 l28 0 5 90 c7 158 20 228 44 248 27 22 20 22 332 -9 186 -18 306 -24
413 -22 176 3 189 9 199 87 14 104 26 121 86 121 59 0 79 -25 79 -102 l0 -61
25 23 24 23 20 -24 c24 -30 43 -22 136 61 76 68 111 89 124 74 4 -5 36 -79 70
-164 l61 -155 0 -114 0 -113 30 6 c17 3 30 1 30 -4 0 -5 10 -16 23 -24 47 -31
157 18 157 70 0 32 -184 556 -216 615 -39 71 -56 81 -32 17z"/>
<path d="M927 4787 c137 -112 550 -376 665 -427 24 -10 110 -33 191 -50 82
-17 155 -34 162 -36 9 -4 11 2 8 19 -4 22 -17 26 -201 65 -186 40 -202 45
-296 98 -126 71 -302 182 -440 278 -107 76 -143 97 -89 53z"/>
<path d="M6780 4500 c14 -26 36 -28 305 -34 127 -3 240 -8 252 -12 21 -6 19
-9 -23 -37 -85 -56 -129 -146 -104 -211 6 -16 9 -30 8 -32 -2 -1 -160 4 -352
12 -192 8 -351 12 -354 9 -3 -3 6 -121 21 -263 24 -232 29 -259 48 -274 22
-19 44 -24 35 -9 -8 13 -46 354 -46 412 0 83 -2 83 302 73 389 -13 369 -17
388 68 14 66 41 109 96 154 45 37 56 70 28 81 -14 5 -13 9 6 23 l23 18 -21 11
c-34 18 -201 30 -420 31 -198 0 -202 0 -192 -20z"/>
<path d="M1964 4184 c16 -190 19 -214 30 -214 33 1 36 15 26 125 -11 111 -24
155 -49 163 -12 4 -13 -9 -7 -74z"/>
<path d="M2540 4030 c-96 -15 -248 -34 -337 -41 -90 -6 -163 -15 -163 -20 0
-4 8 -15 17 -25 15 -15 33 -16 153 -10 74 3 230 20 345 37 224 33 295 34 410
4 60 -16 499 -200 575 -241 l45 -25 -35 35 c-27 28 -98 62 -328 160 -268 114
-303 126 -398 140 -58 9 -106 16 -107 15 -1 -1 -81 -14 -177 -29z"/>
<path d="M6640 3606 c22 -21 254 -156 259 -150 8 8 -10 20 -136 93 -120 70
-151 84 -123 57z"/>
<path d="M6870 3380 l-23 -60 43 -112 43 -111 -168 -991 c-92 -545 -170 -1004
-173 -1019 -4 -26 -2 -28 19 -25 13 2 29 14 36 28 9 20 300 1704 328 1900 5
37 0 67 -30 158 -34 103 -36 116 -26 157 19 76 11 135 -20 135 -4 0 -17 -27
-29 -60z"/>
<path d="M3870 3255 l0 -165 27 -11 c15 -5 37 -21 51 -34 21 -21 259 -111 269
-101 16 15 -27 38 -140 75 -72 24 -138 48 -144 53 -9 8 -13 48 -13 140 0 87
-4 139 -14 162 -30 72 -36 53 -36 -119z"/>
<path d="M4230 2929 c0 -4 6 -22 14 -40 7 -19 35 -89 60 -156 30 -77 53 -123
62 -123 8 0 14 3 14 6 0 23 -107 271 -126 292 -13 15 -24 24 -24 21z"/>
<path d="M4515 2634 c-66 -13 -122 -23 -124 -24 -2 0 4 -10 15 -21 20 -22 52
-23 212 -3 l52 7 0 -95 0 -95 61 -84 c94 -131 118 -149 35 -26 -37 55 -39 61
-46 164 -6 94 -9 108 -28 121 -15 10 -22 25 -22 48 0 40 8 40 -155 8z"/>
<path d="M5494 2513 c-3 -10 -17 -42 -31 -71 -38 -77 -91 -118 -193 -149 -47
-14 -98 -33 -114 -41 -28 -14 -29 -15 -11 -28 16 -12 -4 -14 -151 -14 l-169
-1 27 -24 c35 -30 93 -39 214 -33 81 5 99 9 141 35 26 17 78 40 115 52 80 27
139 67 176 122 36 55 68 89 84 89 7 0 51 -23 98 -50 78 -47 89 -50 130 -45 86
12 118 7 206 -30 158 -66 202 -77 312 -81 l102 -3 14 32 c7 18 12 33 11 35 -1
1 -42 -2 -92 -7 -131 -14 -227 1 -338 51 -84 38 -248 98 -267 98 -5 0 2 -15
16 -33 26 -33 33 -57 18 -57 -14 0 -108 54 -194 112 -48 32 -90 58 -93 58 -3
0 -8 -8 -11 -17z"/>
<path d="M6417 2208 c-155 -367 -210 -502 -313 -763 -67 -170 -120 -312 -118
-314 2 -2 26 15 54 39 49 41 50 41 50 17 0 -56 27 -46 153 60 48 40 94 73 101
73 7 0 29 -24 49 -53 20 -29 51 -66 69 -82 25 -23 28 -24 12 -5 -12 14 -35 47
-52 73 -17 26 -42 59 -56 72 -19 17 -26 34 -26 60 0 19 -3 35 -6 35 -3 0 -54
-42 -113 -93 -58 -51 -111 -96 -118 -100 -7 -5 -2 19 11 55 54 141 169 427
265 655 55 133 101 250 101 260 0 22 -18 43 -37 43 -7 0 -19 -15 -26 -32z"/>
</g>
</svg>
